<?xml version="1.0" standalone="no"?>
<!DOCTYPE svg PUBLIC "-//W3C//DTD SVG 20010904//EN"
 "http://www.w3.org/TR/2001/REC-SVG-20010904/DTD/svg10.dtd">
<svg version="1.0" xmlns="http://www.w3.org/2000/svg"
 width="1261.000000pt" height="1261.000000pt" viewBox="0 0 1261.000000 1261.000000"
 preserveAspectRatio="xMidYMid meet">
<metadata>
Created by potrace 1.11, written by Peter Selinger 2001-2013
</metadata>
<g transform="translate(0.000000,1261.000000) scale(0.100000,-0.100000)"
fill="#000000" stroke="none">
<path d="M6223 11936 c-39 -19 -76 -44 -83 -55 -6 -12 -23 -27 -39 -35 -23
-13 -107 -125 -148 -199 -37 -68 -73 -164 -73 -196 0 -21 -10 -53 -25 -76 -30
-49 -31 -94 -4 -177 14 -42 22 -98 25 -168 7 -205 6 -305 -4 -330 -5 -14 -29
-43 -52 -65 -24 -22 -55 -52 -69 -66 -14 -14 -37 -31 -49 -38 -25 -13 -136
-28 -307 -40 -55 -4 -110 -12 -122 -19 -12 -7 -55 -12 -97 -12 -41 0 -132 -5
-202 -11 -107 -9 -133 -15 -158 -34 -17 -12 -43 -25 -57 -28 -14 -4 -43 -20
-64 -37 -21 -16 -47 -30 -59 -30 -12 0 -41 -14 -63 -30 -29 -21 -62 -34 -104
-41 -41 -6 -72 -18 -91 -34 -23 -19 -41 -25 -80 -25 -37 0 -64 -7 -95 -26 -28
-16 -75 -30 -136 -39 -124 -20 -224 -49 -250 -73 -33 -29 -56 -39 -117 -46
-31 -4 -77 -20 -105 -36 -27 -16 -67 -32 -88 -35 -72 -14 -317 -221 -317 -268
0 -12 16 -65 35 -117 19 -52 35 -107 35 -122 0 -15 11 -38 25 -52 27 -27 68
-113 86 -179 6 -23 21 -54 34 -69 13 -15 31 -52 39 -82 9 -30 20 -58 25 -61 6
-3 15 -30 21 -61 8 -37 22 -66 40 -85 15 -16 33 -51 40 -77 6 -26 23 -64 36
-84 18 -25 33 -72 48 -150 21 -104 22 -129 15 -283 -10 -230 12 -517 46 -590
13 -27 26 -72 30 -99 11 -83 111 -166 200 -166 12 0 44 -11 71 -25 73 -37 100
-44 201 -49 79 -4 98 -9 134 -33 41 -27 47 -28 178 -28 75 0 142 4 149 9 9 6
12 -11 12 -77 0 -72 -4 -93 -25 -133 -14 -26 -25 -57 -25 -69 0 -12 -11 -44
-25 -70 -14 -26 -32 -75 -40 -109 -19 -79 -19 -271 0 -361 8 -38 15 -82 15
-97 0 -14 18 -66 41 -115 l41 -88 -4 -140 c-4 -115 -8 -148 -25 -185 -11 -25
-24 -72 -27 -105 -4 -33 -13 -76 -21 -95 -8 -19 -19 -54 -25 -78 -7 -26 -23
-54 -41 -70 -31 -27 -31 -28 -24 -99 7 -77 11 -68 -55 -125 -11 -10 -20 -30
-20 -44 0 -15 -8 -41 -19 -58 -16 -28 -29 -80 -46 -188 -4 -29 -13 -42 -35
-53 -18 -9 -31 -26 -35 -46 -4 -17 -18 -40 -31 -52 -13 -11 -29 -39 -35 -61
-6 -23 -24 -62 -40 -87 -16 -25 -29 -53 -29 -61 0 -9 -14 -33 -31 -54 -17 -22
-51 -71 -77 -110 -66 -99 -106 -152 -156 -204 -62 -64 -116 -138 -129 -174 -5
-17 -18 -43 -28 -57 -11 -15 -22 -36 -26 -47 -5 -11 -68 -82 -140 -157 -73
-76 -133 -144 -133 -152 0 -8 -25 -40 -55 -72 -30 -31 -62 -75 -71 -97 -16
-40 -52 -93 -114 -168 -19 -23 -56 -72 -82 -109 -26 -37 -66 -78 -88 -92 -27
-17 -47 -40 -59 -68 -10 -23 -26 -48 -35 -56 -9 -7 -22 -34 -30 -60 -8 -25
-23 -66 -35 -91 -11 -25 -21 -60 -21 -78 0 -25 -9 -42 -33 -65 -28 -27 -35
-42 -41 -90 -4 -34 -18 -81 -36 -114 -18 -33 -30 -71 -30 -93 0 -22 -12 -60
-29 -91 -16 -30 -32 -74 -36 -99 -4 -25 -16 -63 -28 -85 -27 -53 -34 -152 -14
-191 18 -35 80 -99 131 -136 46 -33 121 -44 190 -28 43 9 53 8 88 -10 21 -11
80 -29 131 -40 51 -11 102 -22 114 -25 12 -3 34 -16 50 -29 16 -13 47 -29 71
-35 23 -7 46 -20 52 -30 22 -43 173 -101 259 -101 13 0 39 -9 57 -21 49 -30
124 -34 234 -11 149 31 163 39 184 107 12 37 17 75 14 112 -4 49 -10 59 -50
100 -35 35 -59 49 -109 63 -36 9 -82 29 -103 44 -21 14 -47 26 -58 26 -36 0
-75 29 -107 79 l-33 50 4 129 c3 123 4 131 31 170 16 22 33 59 38 81 5 22 22
60 38 83 69 105 81 125 89 165 6 23 21 56 35 72 14 17 28 44 32 60 3 16 15 37
27 47 11 11 38 50 61 89 22 38 57 95 77 125 20 30 54 82 76 115 21 33 65 90
96 126 32 37 58 70 58 73 0 4 27 43 59 86 33 43 65 89 72 102 7 13 40 57 74
99 41 50 66 91 73 120 6 25 24 61 39 81 64 84 144 177 195 228 31 30 67 74 81
97 15 23 31 44 36 47 5 4 19 32 31 64 12 31 28 64 36 73 8 8 20 36 28 61 7 25
23 55 34 66 12 12 26 40 32 64 6 24 21 56 32 72 11 16 23 50 25 75 6 63 19 85
63 110 52 29 80 26 128 -12 38 -29 132 -158 132 -179 0 -5 11 -24 25 -42 14
-18 25 -37 25 -43 0 -5 11 -25 26 -44 14 -19 33 -52 43 -74 10 -23 43 -74 75
-114 31 -40 56 -77 56 -81 0 -7 24 -40 93 -125 14 -17 32 -47 41 -68 9 -22 27
-52 40 -68 14 -16 28 -39 32 -51 4 -13 20 -38 35 -56 16 -18 29 -39 29 -47 0
-7 11 -27 25 -43 14 -17 31 -47 39 -69 7 -21 38 -75 67 -120 30 -46 76 -121
102 -167 26 -46 57 -92 68 -101 10 -10 19 -24 19 -30 0 -7 16 -36 35 -64 19
-28 35 -53 35 -56 0 -3 23 -52 51 -108 29 -56 64 -128 80 -159 16 -31 33 -59
38 -62 5 -4 17 -30 26 -59 10 -28 26 -61 37 -73 10 -11 29 -39 41 -62 12 -22
40 -65 62 -94 23 -29 54 -75 70 -101 17 -27 44 -70 60 -96 17 -26 39 -62 50
-81 11 -18 31 -47 45 -64 14 -17 34 -44 45 -61 20 -32 86 -118 134 -176 17
-20 44 -65 60 -101 20 -44 42 -76 70 -98 28 -23 45 -46 52 -73 6 -22 23 -56
39 -76 15 -20 31 -49 34 -65 7 -30 129 -258 153 -287 11 -14 46 -78 91 -168 7
-14 18 -36 25 -47 21 -38 139 -209 151 -219 6 -5 24 -28 40 -50 16 -22 56 -66
89 -98 l59 -59 84 4 c73 3 86 6 111 29 15 15 39 32 53 39 31 16 106 77 182
147 35 33 65 53 80 53 27 0 182 72 193 89 3 6 25 21 47 32 22 11 70 46 107 77
159 135 271 235 271 243 0 10 86 146 130 206 60 80 60 151 2 189 -23 15 -68
17 -382 20 -260 3 -368 7 -401 17 -75 23 -227 149 -396 329 -99 106 -143 172
-143 217 0 12 -11 32 -23 44 -29 27 -47 59 -47 84 0 10 -11 38 -24 63 -13 25
-29 63 -36 85 -7 22 -23 53 -36 68 -13 15 -30 51 -38 78 -9 28 -24 58 -36 67
-12 10 -24 38 -30 72 -6 32 -20 64 -34 80 -13 14 -26 37 -30 52 -3 15 -17 44
-31 64 -13 20 -27 52 -31 73 -8 43 -27 83 -48 100 -9 8 -16 28 -16 45 0 20
-11 44 -29 66 -16 21 -32 54 -36 80 -9 55 -16 70 -72 144 -25 32 -50 73 -56
90 -6 17 -21 45 -35 63 -13 18 -30 53 -38 80 -8 26 -23 57 -34 68 -13 14 -23
42 -27 74 -4 34 -14 63 -29 80 -13 15 -28 50 -35 77 -12 46 -40 94 -100 167
-14 18 -31 48 -38 67 -6 19 -21 44 -32 56 -13 13 -23 43 -28 78 -5 40 -15 65
-33 84 -14 15 -33 41 -41 57 -8 17 -24 39 -36 49 -12 11 -25 42 -32 77 -6 32
-20 66 -30 75 -11 10 -27 42 -35 71 -9 30 -22 57 -30 60 -16 6 -34 64 -34 113
0 19 -8 50 -18 67 -53 99 -112 221 -112 232 0 19 -58 120 -91 158 -16 18 -31
50 -34 70 -4 21 -22 70 -40 108 -18 39 -38 81 -44 95 -6 14 -20 37 -32 51 -13
16 -23 46 -26 75 -2 27 -19 81 -37 119 l-33 70 6 380 c7 423 -2 369 85 527 20
36 41 92 47 124 6 32 21 77 34 99 14 23 29 72 35 115 7 41 23 99 36 129 14 30
32 95 40 145 9 49 24 111 35 138 12 31 19 73 19 116 0 79 23 132 64 146 58 21
107 -26 121 -116 4 -25 12 -39 25 -43 11 -4 33 -18 49 -31 55 -46 213 -66 350
-43 79 12 110 28 164 82 40 40 136 202 152 257 4 14 16 44 26 66 20 45 17 71
-16 135 -22 42 -87 127 -154 199 -41 44 -51 62 -51 90 0 19 -9 91 -20 160 -11
69 -20 139 -20 156 0 18 -7 45 -15 60 -8 16 -15 43 -15 59 0 30 -6 42 -47 106
-15 22 -23 49 -23 79 0 44 -22 130 -57 222 -15 40 -16 53 -5 92 12 45 5 87
-16 100 -6 3 -24 30 -40 59 -22 38 -49 65 -102 102 -118 82 -170 126 -171 143
-1 10 -2 40 -3 68 -1 42 -7 57 -33 88 -28 31 -33 44 -33 89 0 31 6 62 15 74
21 31 110 78 173 93 43 10 63 23 113 73 94 93 94 93 95 234 0 121 1 125 26
146 16 13 30 41 37 69 6 26 22 68 36 94 31 59 31 65 -2 104 -38 45 -45 138
-14 169 18 18 33 21 97 21 82 0 98 6 161 57 45 37 103 137 103 178 0 39 -38
71 -95 79 -28 4 -61 13 -74 20 -18 10 -35 11 -69 3 -36 -7 -68 -5 -141 9 -103
20 -144 45 -200 119 -123 164 -164 185 -396 195 -88 4 -180 11 -205 14 -39 6
-55 2 -117 -28z m-1148 -1978 c28 -33 46 -38 136 -39 73 -2 104 -10 124 -35
14 -17 113 -36 178 -34 90 3 97 1 106 -23 6 -16 23 -27 53 -36 68 -20 93 -35
93 -56 0 -32 -63 -24 -126 15 -42 25 -67 33 -114 36 -133 8 -166 15 -188 40
-18 21 -29 24 -88 24 -72 0 -147 21 -166 46 -10 13 -47 17 -231 21 l-218 4
-50 -40 c-27 -23 -53 -41 -59 -41 -6 0 -35 -16 -65 -36 -84 -54 -180 -95 -218
-92 -27 2 -39 -5 -82 -49 l-50 -52 -2 -103 c-1 -57 -1 -112 0 -123 1 -11 2
-75 2 -142 l0 -122 28 -13 c19 -9 32 -27 43 -61 8 -26 24 -57 35 -70 11 -12
32 -39 48 -59 21 -29 36 -39 66 -44 l40 -7 2 -73 c1 -41 2 -84 2 -96 1 -26
-27 -36 -49 -18 -8 7 -18 35 -21 62 -4 30 -16 61 -30 78 -13 15 -24 33 -24 38
0 6 -13 19 -29 28 -16 9 -36 32 -45 50 -8 19 -20 34 -26 34 -19 0 -50 64 -50
103 0 29 -4 37 -18 37 -38 0 -46 40 -39 194 6 126 4 152 -12 202 -22 66 -17
89 27 121 17 13 38 38 47 58 10 19 27 37 38 41 12 3 34 17 48 31 17 15 41 25
67 28 24 2 56 14 74 28 18 14 55 31 81 39 27 8 47 18 45 23 -5 14 62 55 89 55
13 0 26 7 30 18 14 39 18 40 249 38 l226 -2 23 -26z m796 -491 c4 -15 3 -43
-2 -61 -9 -31 -12 -33 -37 -27 -23 6 -27 13 -30 48 -5 68 53 101 69 40z m52
-159 c10 -17 14 -56 13 -137 -1 -96 -4 -116 -18 -125 -12 -7 -21 -7 -28 0 -16
16 -24 207 -10 249 13 41 24 44 43 13z m-668 -267 c290 -71 382 -92 430 -98
63 -7 85 -19 85 -43 0 -16 -7 -20 -30 -20 -29 0 -183 36 -345 80 -38 10 -116
26 -172 35 -56 8 -124 25 -150 36 -26 12 -73 23 -104 26 -49 5 -66 1 -135 -30
-43 -19 -104 -40 -134 -47 -30 -7 -80 -23 -110 -35 -69 -30 -191 -67 -197 -62
-6 6 56 43 87 52 14 5 41 18 61 31 20 12 62 30 94 39 31 10 76 25 100 36 111
49 318 49 520 0z m611 -89 c-3 -15 -6 -54 -7 -87 -3 -75 -6 -81 -30 -52 -37
48 -42 76 -18 121 12 23 26 44 32 48 18 11 28 -2 23 -30z m-1430 -328 c9 -20
13 -47 10 -59 -4 -16 2 -29 24 -48 18 -17 31 -40 35 -64 3 -21 8 -47 10 -58 3
-12 22 -40 43 -63 l39 -42 75 0 c82 0 138 -14 138 -35 0 -21 -20 -29 -85 -32
-84 -4 -123 4 -130 28 -4 10 -23 28 -43 38 -23 12 -44 33 -55 55 -9 20 -23 36
-31 36 -16 0 -39 49 -36 76 5 41 -1 55 -24 64 -28 10 -41 54 -32 106 10 48 42
47 62 -2z m1484 -53 c-1 -9 -26 -41 -34 -41 -8 0 -8 45 0 53 7 7 34 -2 34 -12z
m-10 -158 c0 -16 4 -33 10 -39 5 -5 9 -110 10 -244 1 -326 3 -300 -19 -300
-26 0 -30 36 -30 363 -1 248 1 277 14 263 8 -8 15 -27 15 -43z m-2136 31 c23
-22 20 -34 -7 -34 -16 0 -28 9 -35 25 -10 22 -9 25 8 25 10 0 26 -7 34 -16z
m101 -97 c17 -26 45 -54 62 -62 18 -9 38 -26 44 -38 7 -12 18 -26 25 -30 27
-16 13 -24 -33 -20 -37 3 -53 10 -68 29 -11 14 -36 44 -56 67 -38 44 -49 73
-35 95 12 20 29 10 61 -41z m1147 -148 c20 -19 46 -33 74 -38 71 -13 92 -44
57 -83 -17 -19 -97 -26 -108 -9 -3 6 -37 13 -75 17 -52 5 -70 10 -70 21 0 19
-54 70 -69 65 -16 -5 -14 13 3 27 21 18 65 29 114 30 36 1 49 -4 74 -30z
m-941 -31 c6 -11 8 -22 6 -25 -9 -9 -44 16 -49 35 -4 15 -1 18 14 14 10 -2 23
-13 29 -24z m49 -63 c10 -12 10 -15 -4 -15 -9 0 -16 7 -16 15 0 8 2 15 4 15 2
0 9 -7 16 -15z m755 -25 c-3 -5 -17 -10 -30 -10 -16 0 -35 -14 -59 -43 -33
-40 -35 -47 -31 -98 13 -150 15 -158 47 -180 17 -12 39 -41 49 -63 21 -49 129
-155 185 -184 53 -27 73 -50 53 -62 -7 -5 -23 -7 -34 -5 -11 2 -28 4 -37 4
-10 1 -24 15 -33 31 -11 21 -23 30 -41 30 -18 0 -30 10 -45 35 -12 20 -30 40
-40 46 -11 5 -27 27 -36 49 -10 21 -27 43 -40 49 -14 7 -24 23 -29 47 -4 20
-20 49 -35 65 -27 28 -29 35 -29 107 0 83 9 102 47 102 14 0 23 6 23 16 0 19
25 45 59 61 33 14 64 16 56 3z m-677 -82 c17 -17 15 -58 -2 -58 -15 0 -26 21
-26 51 0 22 11 24 28 7z m58 -136 c6 -4 16 -29 23 -57 7 -27 15 -58 18 -67 2
-9 12 -20 22 -23 12 -3 23 -22 30 -50 6 -24 19 -49 29 -54 10 -5 24 -28 31
-50 6 -23 18 -41 26 -41 8 0 33 -22 56 -50 23 -27 48 -50 56 -50 21 0 63 -31
63 -46 0 -18 -25 -18 -53 0 -12 8 -41 17 -64 21 -53 8 -84 33 -113 87 -77 145
-100 196 -100 223 -1 17 -14 55 -30 85 -17 30 -30 61 -30 68 0 13 19 16 36 4z
m1384 -296 c0 -9 -88 -54 -117 -59 -30 -6 -33 -4 -33 18 0 19 7 26 28 31 15 3
32 7 37 9 15 5 85 6 85 1z m-176 -81 c-23 -35 -66 -48 -126 -41 -69 9 -86 19
-69 40 12 14 43 18 173 22 36 1 36 1 22 -21z"/>
</g>
</svg>
